<svg width="24" height="24" viewBox="0 0 24 24" fill="none" xmlns="http://www.w3.org/2000/svg">
<path fill-rule="evenodd" clip-rule="evenodd" d="M6.61909 9.93619C6.61909 6.96569 9.02715 4.55762 11.9977 4.55762C14.9682 4.55762 17.3762 6.96569 17.3762 9.93619C17.3762 12.9016 14.9764 15.3065 12.0129 15.3147C12.0078 15.3146 12.0028 15.3146 11.9978 15.3146C11.9927 15.3146 11.9876 15.3146 11.9825 15.3147C9.01894 15.3065 6.61909 12.9016 6.61909 9.93619ZM11.9977 17.7418L9.60419 22.5287C9.46587 22.8054 9.17193 22.9687 8.86397 22.9401C8.55601 22.9115 8.2972 22.6968 8.21223 22.3994L7.37475 19.4682L4.97096 19.8688C4.6686 19.9192 4.36602 19.7806 4.20679 19.5186C4.04756 19.2567 4.06374 18.9243 4.24766 18.679L7.147 14.8133C5.89445 13.5675 5.11909 11.8424 5.11909 9.93619C5.11909 6.13726 8.19873 3.05762 11.9977 3.05762C15.7966 3.05762 18.8762 6.13726 18.8762 9.93619C18.8762 11.8424 18.1009 13.5675 16.8483 14.8133L19.7477 18.679C19.9316 18.9243 19.9478 19.2567 19.7885 19.5186C19.6293 19.7806 19.3267 19.9192 19.0244 19.8688L16.6206 19.4682L15.7831 22.3994C15.6981 22.6968 15.4393 22.9115 15.1313 22.9401C14.8234 22.9687 14.5294 22.8054 14.3911 22.5287L11.9977 17.7418ZM13.1621 16.7166L14.8705 20.1334L15.3622 18.4123C15.467 18.0455 15.8304 17.8158 16.2067 17.8785L17.4245 18.0815L15.6757 15.7498C14.9241 16.2264 14.0737 16.5612 13.1621 16.7166ZM8.31956 15.7498C9.07123 16.2264 9.92164 16.5612 10.8332 16.7166L9.12482 20.1334L8.63309 18.4123C8.52829 18.0455 8.1649 17.8158 7.78864 17.8785L6.57081 18.0815L8.31956 15.7498ZM9.53337 9.93619C9.53337 8.5752 10.6367 7.4719 11.9977 7.4719C13.3586 7.4719 14.4619 8.5752 14.4619 9.93619C14.4619 11.2972 13.3586 12.4005 11.9977 12.4005C10.6367 12.4005 9.53337 11.2972 9.53337 9.93619ZM11.9977 6.2719C9.97393 6.2719 8.33337 7.91246 8.33337 9.93619C8.33337 11.9599 9.97393 13.6005 11.9977 13.6005C14.0214 13.6005 15.6619 11.9599 15.6619 9.93619C15.6619 7.91246 14.0214 6.2719 11.9977 6.2719Z" fill="#9AA2AC"/>
</svg>
