<svg width="16" height="16" viewBox="0 0 16 16" fill="none" xmlns="http://www.w3.org/2000/svg">
<path d="M2.52832 10.0674L7.28271 5.19238C7.49854 4.97656 7.72705 4.875 7.99365 4.875C8.2666 4.875 8.50146 4.98291 8.71094 5.19873L13.4653 10.0674C13.6304 10.2324 13.7192 10.4355 13.7192 10.6831C13.7192 11.1719 13.3257 11.5718 12.8369 11.5718C12.5957 11.5718 12.3608 11.4766 12.1895 11.2925L8 6.97607L3.8042 11.2925C3.62646 11.4702 3.4043 11.5718 3.15674 11.5718C2.66797 11.5718 2.27441 11.1719 2.27441 10.6831C2.27441 10.4419 2.36328 10.2324 2.52832 10.0674Z" fill="#EBEBF5" fill-opacity="0.3"/>
</svg>
