<svg width="16" height="16" viewBox="0 0 16 16" fill="none" xmlns="http://www.w3.org/2000/svg">
<path d="M7.99365 11.9844C8.2666 11.9844 8.50146 11.8765 8.71094 11.667L13.4653 6.79199C13.6304 6.62695 13.7192 6.42383 13.7192 6.18262C13.7192 5.6875 13.3257 5.29395 12.8369 5.29395C12.5957 5.29395 12.3672 5.38916 12.1895 5.56689L8 9.8833L3.8042 5.56689C3.62646 5.39551 3.4043 5.29395 3.15674 5.29395C2.66797 5.29395 2.27441 5.6875 2.27441 6.18262C2.27441 6.42383 2.36328 6.62695 2.52832 6.79834L7.28271 11.667C7.50488 11.8828 7.72705 11.9844 7.99365 11.9844Z" fill="#EBEBF5" fill-opacity="0.3"/>
</svg>
