<svg width="24" height="24" viewBox="0 0 24 24" fill="none" xmlns="http://www.w3.org/2000/svg">
<path d="M3 9L2.38606 8.21065L2 8.51092V9H3ZM12 2L12.6139 1.21065C12.2528 0.929784 11.7472 0.929784 11.3861 1.21065L12 2ZM21 9H22V8.51092L21.6139 8.21065L21 9ZM3 20H2H3ZM3.61394 9.78935L12.6139 2.78935L11.3861 1.21065L2.38606 8.21065L3.61394 9.78935ZM11.3861 2.78935L20.3861 9.78935L21.6139 8.21065L12.6139 1.21065L11.3861 2.78935ZM20 9V20H22V9H20ZM20 20C20 20.2652 19.8946 20.5196 19.7071 20.7071L21.1213 22.1213C21.6839 21.5587 22 20.7957 22 20H20ZM19.7071 20.7071C19.5196 20.8946 19.2652 21 19 21V23C19.7957 23 20.5587 22.6839 21.1213 22.1213L19.7071 20.7071ZM19 21H5V23H19V21ZM5 21C4.73478 21 4.48043 20.8946 4.29289 20.7071L2.87868 22.1213C3.44129 22.6839 4.20435 23 5 23V21ZM4.29289 20.7071C4.10536 20.5196 4 20.2652 4 20H2C2 20.7957 2.31607 21.5587 2.87868 22.1213L4.29289 20.7071ZM4 20V9H2V20H4Z" fill="#8C94A8"/>
<path d="M9 22V12H15V22" stroke="#8C94A8" stroke-width="2" stroke-linecap="square"/>
</svg>
