<svg width="16" height="16" viewBox="0 0 16 16" fill="none" xmlns="http://www.w3.org/2000/svg">
<path d="M7.99414 2.19141C7.56055 2.19141 7.26758 2.49023 7.26758 2.93555V9.87891L7.31445 11.1504L5.92578 9.58008L4.60742 8.26758C4.47266 8.13867 4.29688 8.05078 4.08594 8.05078C3.6875 8.05078 3.38867 8.34375 3.38867 8.75391C3.38867 8.94727 3.46484 9.12891 3.61719 9.28125L7.45508 13.125C7.5957 13.2715 7.79492 13.3535 7.99414 13.3535C8.19336 13.3535 8.39844 13.2715 8.53906 13.125L12.377 9.28125C12.5293 9.12891 12.6055 8.94727 12.6055 8.75391C12.6055 8.34375 12.3066 8.05078 11.9082 8.05078C11.6973 8.05078 11.5215 8.13867 11.3867 8.26758L10.0625 9.58008L8.67383 11.1504L8.72656 9.87891V2.93555C8.72656 2.49023 8.42773 2.19141 7.99414 2.19141Z" fill="black"/>
</svg>
