<svg width="16" height="16" viewBox="0 0 16 16" fill="none" xmlns="http://www.w3.org/2000/svg">
<path d="M4.0625 2.37305L1.10938 5.39062C0.980469 5.52539 0.898438 5.71875 0.898438 5.89453C0.898438 6.29883 1.17969 6.57422 1.57812 6.57422C1.77148 6.57422 1.92969 6.50977 2.05859 6.38086L3.25977 5.13281L3.92188 4.35938L3.88672 5.53711V12.709C3.88672 13.1074 4.17383 13.4004 4.57227 13.4004C4.9707 13.4004 5.25781 13.1074 5.25781 12.709V5.53711L5.22266 4.35938L5.88477 5.13281L7.08594 6.38086C7.21484 6.50977 7.37305 6.57422 7.56641 6.57422C7.96484 6.57422 8.24609 6.29883 8.24609 5.89453C8.24609 5.71875 8.16406 5.52539 8.03516 5.39062L5.08203 2.37305C4.80078 2.07422 4.34961 2.06836 4.0625 2.37305ZM11.9375 13.1777L14.8906 10.1484C15.0195 10.0195 15.1016 9.82031 15.1016 9.65039C15.1016 9.24609 14.8203 8.96484 14.4219 8.96484C14.2285 8.96484 14.0703 9.0293 13.9414 9.16406L12.7402 10.4121L12.0781 11.1797L12.1191 10.002V2.83594C12.1191 2.4375 11.8262 2.14453 11.4277 2.14453C11.0293 2.14453 10.7422 2.4375 10.7422 2.83594V10.002L10.7832 11.1797L10.1152 10.4121L8.91406 9.16406C8.78516 9.0293 8.62695 8.96484 8.43945 8.96484C8.04102 8.96484 7.75391 9.24609 7.75391 9.65039C7.75391 9.82031 7.83594 10.0195 7.96484 10.1484L10.918 13.1777C11.1992 13.4766 11.6504 13.4824 11.9375 13.1777Z" fill="#3C3C43" fill-opacity="0.3"/>
</svg>
