<svg width="24" height="24" viewBox="0 0 24 24" fill="none" xmlns="http://www.w3.org/2000/svg">
<g clip-path="url(#clip0_2255_35564)">
<path d="M6.44491 8.74348C6.44491 8.30236 6.43866 7.86125 6.44581 7.42014C6.47481 5.66849 7.18842 4.2459 8.57324 3.15724C9.36228 2.53748 10.2687 2.17135 11.2652 2.04608C14.1862 1.67907 16.8813 3.5388 17.4565 6.3972C17.5226 6.72627 17.5485 7.06769 17.5538 7.40382C17.5672 8.27854 17.5739 9.15371 17.5552 10.0284C17.5079 12.2485 16.4716 13.8776 14.4901 14.908C13.614 15.3637 12.6666 15.5251 11.6754 15.4753C9.59524 15.3712 7.67353 14.0681 6.86576 12.1361C6.58594 11.4669 6.43643 10.7713 6.44402 10.0448C6.44848 9.61114 6.44491 9.17709 6.44491 8.74348ZM15.467 8.75097C15.467 8.31383 15.463 7.87625 15.4679 7.43911C15.4733 6.94903 15.363 6.48454 15.1613 6.04079C14.5012 4.5882 12.7616 3.77788 11.184 4.16077C9.67467 4.52733 8.49961 5.86037 8.53531 7.52954C8.55361 8.37427 8.54022 9.22032 8.53799 10.0655C8.5362 10.586 8.65804 11.0778 8.89055 11.5414C9.7443 13.2463 11.9199 13.9309 13.6444 13.0112C14.8266 12.3809 15.442 11.3796 15.4661 10.0412C15.4737 9.61114 15.467 9.18106 15.467 8.75097Z" fill="#8C94A8"/>
<path d="M18.9034 21.9986C18.8708 21.4353 18.6017 21.0004 18.2263 20.6197C17.7252 20.1116 17.1173 19.7609 16.4657 19.479C15.5991 19.1041 14.6913 18.8795 13.7559 18.7507C12.987 18.6444 12.2153 18.6127 11.4419 18.6462C9.93125 18.7119 8.4719 18.9991 7.11117 19.6802C6.71532 19.8782 6.34223 20.1124 6.00885 20.4045C5.52285 20.8297 5.14752 21.3184 5.09977 21.9978C4.4058 21.9978 3.71629 21.9978 3 21.9978C3.02231 21.7931 3.03303 21.5924 3.06828 21.3956C3.23742 20.4455 3.74039 19.6802 4.43525 19.026C5.20643 18.2999 6.1173 17.7979 7.1018 17.4181C8.01579 17.0661 8.96192 16.8412 9.93303 16.7044C10.8568 16.5743 11.7847 16.5359 12.7138 16.58C14.5396 16.6674 16.2993 17.0352 17.9327 17.8809C18.7739 18.3167 19.525 18.8698 20.1146 19.6166C20.5595 20.1799 20.8599 20.8076 20.9576 21.5209C20.979 21.6757 20.9857 21.8328 21.0004 21.9982C20.2909 21.9986 19.6018 21.9986 18.9034 21.9986Z" fill="#8C94A8"/>
</g>
<defs>
<clipPath id="clip0_2255_35564">
<rect width="18" height="20" fill="white" transform="translate(3 2)"/>
</clipPath>
</defs>
</svg>
